<?xml version="1.0" encoding="UTF-8"?>
<svg width="78px" height="24px" viewBox="0 0 78 24" version="1.1" xmlns="http://www.w3.org/2000/svg" xmlns:xlink="http://www.w3.org/1999/xlink">
    <!-- Generator: sketchtool 49.3 (51167) - http://www.bohemiancoding.com/sketch -->
    <title>0ACC661F-87E6-448D-BC5A-E39C2BB394B9</title>
    <desc>Created with sketchtool.</desc>
    <defs>
        <path d="M16.0329572,1.70891196 C14.5707165,3.16909971 14.0327392,5.30141847 14.468131,7.51710848 C14.5520285,7.94448534 14.8868229,8.27876432 15.3148588,8.36253257 C17.5339657,8.79725405 19.6697714,8.26010504 21.1320121,6.8001158 C22.5942528,5.33992805 23.1322301,3.20741078 22.6968382,0.991919278 C22.6129408,0.564542409 22.2783452,0.23026343 21.8501105,0.146495183 C21.3509009,0.0486332244 20.8562639,0 20.3721638,0 C18.7045534,0.000198502957 17.1663677,0.577445102 16.0329572,1.70891196 Z M16.4780906,6.35566767 C16.4019468,5.10708408 16.7769007,3.99824656 17.551262,3.22487903 C18.3258221,2.45171002 19.4363695,2.07753195 20.6868786,2.15336007 C20.7630225,3.40194367 20.3880685,4.51078119 19.6137072,5.28414871 C18.9047542,5.99201026 17.9140885,6.36539432 16.792209,6.36539432 C16.6886295,6.36539432 16.5838571,6.36221827 16.4780906,6.35566767 Z M0,12.5922336 C0,18.8905339 5.07340856,24 11.3362918,24 C17.5993738,24 22.6727824,18.8905339 22.6727824,12.5922336 C22.6727824,11.3297548 22.4690031,10.1153137 22.0926575,8.97987676 C20.1174894,10.5637318 17.5047407,11.1014764 14.8778765,10.5867582 C13.5444641,10.3255283 12.5021081,9.28477731 12.2404754,7.95341798 C11.7778467,5.59798189 12.1647292,3.25405898 13.3971466,1.37244944 C12.7289493,1.24898061 12.0400759,1.18446714 11.3362918,1.18446714 C5.07340856,1.18446714 0,6.29393325 0,12.5922336 Z M14.4277728,15.7218312 C14.8452718,15.3014019 15.525,15.2988214 15.9458788,15.7158761 C16.3667576,16.1329308 16.3693421,16.8116124 15.9518431,17.2318432 C14.7367221,18.4542244 13.090583,19.1549398 11.3362918,19.1549398 C9.58736841,19.1549398 7.94560315,18.4585914 6.73147618,17.2425623 C6.3129831,16.8231256 6.31397714,16.144444 6.7340607,15.7263968 C7.15374664,15.3083496 7.83347483,15.309342 8.25216673,15.7287788 C9.06788033,16.5458169 10.1645111,17.0113064 11.3362918,17.0113064 C12.5116509,17.0113064 13.6114628,16.5430379 14.4277728,15.7218312 Z M44.0660296,18.1076382 L46.4915002,18.1076382 L46.4915002,2.48545553 L44.0660296,2.48545553 L44.0660296,18.1076382 Z M70.3893441,9.29648898 C69.7054408,8.17335925 68.5430042,7.54728092 67.1477622,7.54728092 C65.8640521,7.54728092 64.908178,8.00999132 64.3047925,8.83993218 L64.3047925,7.72593358 L61.9986074,7.72593358 L61.9986074,18.1076382 L64.4238792,18.1076382 L64.4238792,12.1922501 C64.4238792,10.8011414 65.3276652,9.81021459 66.6507396,9.81021459 C67.8258999,9.81021459 68.5990684,10.7205492 68.5990684,12.1723998 L68.5990684,18.1076382 L71.0442211,18.1076382 L71.0442211,11.8150945 C71.183785,10.607204 71.9822023,9.81021459 73.1519948,9.81021459 C74.4337169,9.81021459 75.1796484,10.6824367 75.1796484,12.1723998 L75.1796484,18.1076382 L77.625,18.1076382 L77.625,11.7900832 C77.6067096,9.24547372 76.0420823,7.54728092 73.7084614,7.54728092 C72.2368767,7.54728092 71.0738437,8.20273769 70.3893441,9.29648898 Z M33.0919679,8.93223606 L33.0919679,7.72593358 L30.7855839,7.72593358 L30.7855839,23.1694636 L33.2110546,23.1694636 L33.2110546,17.0839584 C33.8722935,17.8354907 35.0134576,18.3061412 36.3522378,18.3061412 C39.3180714,18.3061412 41.3620275,16.1660808 41.3620275,12.9267111 C41.3620275,9.70024397 39.311312,7.54728092 36.3522378,7.54728092 C34.9416875,7.54728092 33.752014,8.0760928 33.0919679,8.93223606 Z M33.2110546,13.2048137 L33.2110546,12.6686572 C33.2110546,10.7795046 34.2999318,9.67106409 35.9941827,9.67106409 C37.7439013,9.67106409 38.8969939,10.8976138 38.8969939,12.9267111 C38.8969939,14.9599768 37.7393287,16.2020098 35.9941827,16.2020098 C34.3070889,16.2020098 33.2110546,15.0808652 33.2110546,13.2048137 Z M56.2329457,7.72593358 L56.2329457,13.6413217 C56.2329457,15.0058311 55.3868142,16.0233572 54.1257683,16.0233572 C52.8565713,16.0233572 52.1575586,15.2057235 52.1575586,13.7604234 L52.1575586,7.72593358 L49.732088,7.72593358 L49.732088,14.098077 C49.732088,16.6385179 51.2295179,18.3061412 53.569103,18.3061412 C54.8476441,18.3061412 55.8174347,17.8082958 56.3526287,17.0396923 L56.3526287,18.1076382 L58.6586151,18.1076382 L58.6586151,7.72593358 L56.2329457,7.72593358 Z" id="path-1"></path>
    </defs>
    <g id="Symbols" stroke="none" stroke-width="1" fill="none" fill-rule="evenodd">
        <g id="Website/Modules/Footer/Mobile" transform="translate(-32.000000, -59.000000)">
            <g id="Website/Mobile/Footer">
                <g id="Styles/Plum-logotypes/Full" transform="translate(32.000000, 59.000000)">
                    <mask id="mask-2" fill="white">
                        <use xlink:href="#path-1"></use>
                    </mask>
                    <use id="Mask" fill="#FFFFFF" fill-rule="nonzero" xlink:href="#path-1"></use>
                    <g id="Styles/Colour/White" mask="url(#mask-2)" fill="#FFFFFF" fill-rule="evenodd">
                        <rect id="Rectangle-11" x="0" y="0" width="79.7727273" height="25.2"></rect>
                    </g>
                </g>
            </g>
        </g>
    </g>
</svg>