<svg xmlns="http://www.w3.org/2000/svg" xmlns:xlink="http://www.w3.org/1999/xlink" viewBox="0 10 32 12" id="Layer1" version="1.1"><script xmlns=""/>
    <g>
        <path fill="#FF0000" d="M18.25 17.83c-0.002 0.015-0.003 0.033-0.003 0.052 0 0.222 0.17 0.404 0.387 0.423 0.311-0.026 0.589-0.142 0.815-0.322l-0.223 1.797c-0.362 0.225-0.799 0.363-1.267 0.375-0.918 0-1.403-0.46-1.623-1.5-0.81 1.080-1.5 1.5-2.4 1.5-0.025 0.002-0.054 0.002-0.084 0.002-0.828 0-1.5-0.672-1.5-1.5 0-0.057 0.003-0.114 0.009-0.169 0.010-0.295 0.037-0.579 0.079-0.859l0.465-4.014h1.885l-0.41 3.5c-0.019 0.126-0.030 0.271-0.030 0.419-0.003 0.017-0.005 0.036-0.005 0.056 0 0.163 0.132 0.295 0.295 0.295 0.002 0 0.004-0 0.005-0 0.265 0 0.74-0.5 1.225-1.3 0.496-0.853 0.842-1.854 0.971-2.923l1.889-0.037-0.425 3.635c-0.029 0.157-0.046 0.337-0.046 0.521 0 0.021 0 0.041 0.001 0.062zM9.375 15.195c0.009-0.001 0.019-0.002 0.030-0.002 0.162 0 0.293 0.13 0.295 0.291 0 0.42-0.605 0.78-1.41 0.85 0.265-0.695 0.705-1.14 1.090-1.14zM8.35 17.895c2.36-0.275 3.42-1.025 3.42-2.41-0.034-1.15-0.974-2.070-2.129-2.070-0.050 0-0.099 0.002-0.147 0.005-1.818-0-3.368 1.69-3.368 3.68-0.003 0.047-0.004 0.101-0.004 0.156 0 1.574 1.276 2.85 2.85 2.85 0.067 0 0.133-0.002 0.198-0.007 1.038-0.020 2.014-0.305 2.86-0.79l0.206-1.985c-0.797 0.565-1.772 0.929-2.828 0.999-0.049 0.004-0.088 0.006-0.126 0.006-0.376 0-0.713-0.168-0.939-0.433zM9.29 12.205l0.21-1.915h-5.655c-1.595 0-2.21 0.115-2.86 0.545-0.606 0.4-1 1.077-1 1.847 0 0.001 0 0.002 0 0.004 0.007 0.648 0.24 1.241 0.624 1.704l2.236-0.005c-0.432-0.392-0.735-0.919-0.843-1.514-0.002-0.476 0.308-0.666 1.118-0.666h1.2l-0.425 3.7c-0.22 1.85-0.5 2.28-1.56 2.28-0.004 0-0.008 0-0.013 0-0.32 0-0.631-0.036-0.93-0.105l-0.192 1.895c0.393 0.121 0.844 0.19 1.312 0.19 0.015 0 0.030-0 0.045-0 0.049 0.003 0.109 0.005 0.169 0.005 0.863 0 1.646-0.343 2.219-0.9 0.529-0.574 0.734-1.154 0.884-2.469l0.53-4.59h2.935zM22.345 12.62c-0-0.002-0-0.005-0-0.007 0-0.257 0.208-0.465 0.465-0.465 0.028 0 0.056 0.003 0.083 0.007 0.338 0.084 0.637 0.224 0.9 0.41l0.172-1.781c-0.369-0.287-0.826-0.479-1.323-0.534-0.015-0.001-0.019-0.001-0.022-0.001-1.031 0-1.887 0.752-2.048 1.738-0.043 0.2-0.078 0.433-0.1 0.669l-0.102 0.928h-1.070l-0.19 1.78h1.060l-0.72 6.405h1.865l0.685-6.38h0.83l0.24-1.805h-0.85v-0.105c0-0.245 0.080-0.745 0.11-0.875zM30.88 17.785c0-0.13 0.025-0.55 0.055-0.795l0.665-6.7h-1.885l-0.75 7.435c-0.027 0.202-0.043 0.438-0.045 0.678-0.004 0.047-0.007 0.098-0.007 0.15 0 0.884 0.716 1.6 1.6 1.6 0.031 0 0.061-0.001 0.091-0.003 0.447-0.020 0.859-0.174 1.197-0.424l0.199-1.766c-0.202 0.147-0.446 0.25-0.711 0.289-0.014 0.001-0.019 0.001-0.025 0.001-0.215 0-0.39-0.175-0.39-0.39 0-0.025 0.002-0.049 0.007-0.073zM25.88 15.205c0.009-0.001 0.019-0.002 0.030-0.002 0.162 0 0.293 0.13 0.295 0.291 0 0.39-0.915 0.81-1.415 0.85 0.265-0.69 0.705-1.14 1.090-1.14zM24.85 17.905c2.36-0.275 3.42-1 3.42-2.41 0-1.155-1.285-2.065-2.24-2.065-1.825 0-3.375 1.69-3.375 3.68-0.003 0.047-0.004 0.101-0.004 0.156 0 1.574 1.276 2.85 2.85 2.85 0.067 0 0.133-0.002 0.198-0.007 1.030-0.024 1.997-0.31 2.835-0.795l0.206-1.985c-0.797 0.565-1.772 0.929-2.828 0.999-0.048 0.004-0.084 0.005-0.12 0.005-0.377 0-0.715-0.17-0.941-0.437z"/>
    </g>
</svg>
